<mxfile host="Electron" modified="2024-06-14T06:00:36.757Z" agent="Mozilla/5.0 (X11; Linux x86_64) AppleWebKit/537.36 (KHTML, like Gecko) draw.io/23.1.5 Chrome/120.0.6099.291 Electron/28.3.3 Safari/537.36" etag="CJBSFYWCadh4PVohiBd3" version="23.1.5" type="device">
  <diagram name="Seite-1" id="4tQChKeJkzlLKUBWwajH">
    <mxGraphModel dx="2123" dy="1836" grid="1" gridSize="10" guides="1" tooltips="1" connect="1" arrows="1" fold="1" page="1" pageScale="1" pageWidth="827" pageHeight="1169" math="0" shadow="0">
      <root>
        <mxCell id="0" />
        <mxCell id="1" parent="0" />
        <mxCell id="3rSGyzqZooDTJZcR5CFW-1" value="" style="shape=datastore;whiteSpace=wrap;html=1;" parent="1" vertex="1">
          <mxGeometry x="-40" y="420" width="110" height="80" as="geometry" />
        </mxCell>
        <mxCell id="3rSGyzqZooDTJZcR5CFW-2" value="Transaction-Service" style="rounded=0;whiteSpace=wrap;html=1;" parent="1" vertex="1">
          <mxGeometry x="-280" y="160" width="190" height="120" as="geometry" />
        </mxCell>
        <mxCell id="3rSGyzqZooDTJZcR5CFW-3" value="Depot-Service" style="rounded=0;whiteSpace=wrap;html=1;" parent="1" vertex="1">
          <mxGeometry x="100" y="160" width="190" height="120" as="geometry" />
        </mxCell>
        <mxCell id="3rSGyzqZooDTJZcR5CFW-4" value="" style="endArrow=classic;html=1;rounded=0;entryX=0;entryY=0.5;entryDx=0;entryDy=0;exitX=0.5;exitY=1;exitDx=0;exitDy=0;" parent="1" source="3rSGyzqZooDTJZcR5CFW-2" target="3rSGyzqZooDTJZcR5CFW-1" edge="1">
          <mxGeometry width="50" height="50" relative="1" as="geometry">
            <mxPoint x="20" y="380" as="sourcePoint" />
            <mxPoint x="70" y="330" as="targetPoint" />
          </mxGeometry>
        </mxCell>
        <mxCell id="3rSGyzqZooDTJZcR5CFW-5" value="" style="endArrow=classic;html=1;rounded=0;entryX=1;entryY=0.5;entryDx=0;entryDy=0;exitX=0.585;exitY=1.017;exitDx=0;exitDy=0;exitPerimeter=0;" parent="1" source="3rSGyzqZooDTJZcR5CFW-3" target="3rSGyzqZooDTJZcR5CFW-1" edge="1">
          <mxGeometry width="50" height="50" relative="1" as="geometry">
            <mxPoint x="-175" y="290" as="sourcePoint" />
            <mxPoint x="20" y="441" as="targetPoint" />
          </mxGeometry>
        </mxCell>
        <mxCell id="3rSGyzqZooDTJZcR5CFW-6" value="Model/RepoImp-Layer" style="rounded=0;whiteSpace=wrap;html=1;" parent="1" vertex="1">
          <mxGeometry x="460" y="400" width="200" height="70" as="geometry" />
        </mxCell>
        <mxCell id="3rSGyzqZooDTJZcR5CFW-7" value="Domain" style="rounded=0;whiteSpace=wrap;html=1;" parent="1" vertex="1">
          <mxGeometry x="460" y="240" width="200" height="70" as="geometry" />
        </mxCell>
        <mxCell id="3rSGyzqZooDTJZcR5CFW-9" style="edgeStyle=orthogonalEdgeStyle;rounded=0;orthogonalLoop=1;jettySize=auto;html=1;entryX=1;entryY=0.5;entryDx=0;entryDy=0;exitX=1;exitY=0.5;exitDx=0;exitDy=0;" parent="1" source="3rSGyzqZooDTJZcR5CFW-8" target="3rSGyzqZooDTJZcR5CFW-7" edge="1">
          <mxGeometry relative="1" as="geometry" />
        </mxCell>
        <mxCell id="3rSGyzqZooDTJZcR5CFW-8" value="Ressource" style="rounded=0;whiteSpace=wrap;html=1;" parent="1" vertex="1">
          <mxGeometry x="460" y="90" width="200" height="70" as="geometry" />
        </mxCell>
        <mxCell id="3rSGyzqZooDTJZcR5CFW-10" value="Usecases" style="text;html=1;align=center;verticalAlign=middle;whiteSpace=wrap;rounded=0;" parent="1" vertex="1">
          <mxGeometry x="700" y="190" width="60" height="30" as="geometry" />
        </mxCell>
        <mxCell id="3rSGyzqZooDTJZcR5CFW-13" style="edgeStyle=orthogonalEdgeStyle;rounded=0;orthogonalLoop=1;jettySize=auto;html=1;entryX=1;entryY=0.75;entryDx=0;entryDy=0;exitX=1;exitY=0.75;exitDx=0;exitDy=0;" parent="1" source="3rSGyzqZooDTJZcR5CFW-7" target="3rSGyzqZooDTJZcR5CFW-6" edge="1">
          <mxGeometry relative="1" as="geometry">
            <mxPoint x="700" y="320" as="sourcePoint" />
            <mxPoint x="690" y="470" as="targetPoint" />
          </mxGeometry>
        </mxCell>
        <mxCell id="3rSGyzqZooDTJZcR5CFW-14" value="" style="endArrow=classic;html=1;rounded=0;exitX=1;exitY=0.5;exitDx=0;exitDy=0;entryX=0;entryY=0.5;entryDx=0;entryDy=0;" parent="1" source="3rSGyzqZooDTJZcR5CFW-3" target="3rSGyzqZooDTJZcR5CFW-8" edge="1">
          <mxGeometry width="50" height="50" relative="1" as="geometry">
            <mxPoint x="390" y="370" as="sourcePoint" />
            <mxPoint x="440" y="320" as="targetPoint" />
          </mxGeometry>
        </mxCell>
        <mxCell id="3rSGyzqZooDTJZcR5CFW-15" value="" style="endArrow=classic;html=1;rounded=0;entryX=0;entryY=0.5;entryDx=0;entryDy=0;" parent="1" source="3rSGyzqZooDTJZcR5CFW-3" target="3rSGyzqZooDTJZcR5CFW-7" edge="1">
          <mxGeometry width="50" height="50" relative="1" as="geometry">
            <mxPoint x="300" y="230" as="sourcePoint" />
            <mxPoint x="470" y="135" as="targetPoint" />
          </mxGeometry>
        </mxCell>
        <mxCell id="3rSGyzqZooDTJZcR5CFW-16" value="" style="endArrow=classic;html=1;rounded=0;entryX=-0.021;entryY=0.389;entryDx=0;entryDy=0;entryPerimeter=0;" parent="1" target="3rSGyzqZooDTJZcR5CFW-6" edge="1">
          <mxGeometry width="50" height="50" relative="1" as="geometry">
            <mxPoint x="290" y="260" as="sourcePoint" />
            <mxPoint x="470" y="285" as="targetPoint" />
          </mxGeometry>
        </mxCell>
        <mxCell id="3rSGyzqZooDTJZcR5CFW-19" style="edgeStyle=orthogonalEdgeStyle;rounded=0;orthogonalLoop=1;jettySize=auto;html=1;" parent="1" source="3rSGyzqZooDTJZcR5CFW-18" target="3rSGyzqZooDTJZcR5CFW-8" edge="1">
          <mxGeometry relative="1" as="geometry" />
        </mxCell>
        <mxCell id="3rSGyzqZooDTJZcR5CFW-18" value="Request" style="rounded=0;whiteSpace=wrap;html=1;" parent="1" vertex="1">
          <mxGeometry x="480" y="-140" width="160" height="80" as="geometry" />
        </mxCell>
      </root>
    </mxGraphModel>
  </diagram>
</mxfile>
